HIERARCHY
ROOT root
{
	OFFSET	0	13.1	24.9
	CHANNELS 6  Xposition Yposition Zposition Xrotation Yrotation Zrotation
	JOINT spine_1
	{
		OFFSET	0	9.99999	0
		CHANNELS 3  Xrotation Yrotation Zrotation
		JOINT spine_2
		{
			OFFSET	0	112	-10
			CHANNELS 3  Xrotation Yrotation Zrotation
			JOINT spine_3
			{
				OFFSET	0	206.5	19.3
				CHANNELS 3  Xrotation Yrotation Zrotation
				JOINT spine_4
				{
					OFFSET	0	110.4	14.6
					CHANNELS 3  Xrotation Yrotation Zrotation
					JOINT neck_1
					{
						OFFSET	0	71.8	-50.3
						CHANNELS 3  Xrotation Yrotation Zrotation
						JOINT neck_2
						{
							OFFSET	0	86.2	-25.8
							CHANNELS 3  Xrotation Yrotation Zrotation
							JOINT head_ee
							{
								OFFSET	0	179.8	-8.7
								CHANNELS 3  Xrotation Yrotation Zrotation
								End Site
								{
									OFFSET	1	0	0
								}
							}
						}
					}
					JOINT left_clavicle
					{
						OFFSET	-43.2	22.4	-70.8
						CHANNELS 3  Xrotation Yrotation Zrotation
						JOINT left_shoulder
						{
							OFFSET	-93.9	-5.79999	48.7
							CHANNELS 3  Xrotation Yrotation Zrotation
							JOINT left_elbow
							{
								OFFSET	-291.4	-30.8	15.2
								CHANNELS 3  Xrotation Yrotation Zrotation
								JOINT left_lowarm_twist
								{
									OFFSET	-110.7	-3.89999	13.6
									CHANNELS 3  Xrotation Yrotation Zrotation
									JOINT left_hand
									{
										OFFSET	-110.7	-3.89999	13.6
										CHANNELS 3  Xrotation Yrotation Zrotation
										JOINT left_ee
										{
											OFFSET	-80.8	-5.10001	12.1
											CHANNELS 3  Xrotation Yrotation Zrotation
											End Site
											{
												OFFSET	1	0	0
											}
										}
									}
								}
							}
						}
					}
					JOINT right_clavicle
					{
						OFFSET	43.2	22.4	-70.8
						CHANNELS 3  Xrotation Yrotation Zrotation
						JOINT right_shoulder
						{
							OFFSET	93.9	-5.79999	48.7
							CHANNELS 3  Xrotation Yrotation Zrotation
							JOINT right_elbow
							{
								OFFSET	291.4	-30.8	15.2
								CHANNELS 3  Xrotation Yrotation Zrotation
								JOINT right_lowarm_twist
								{
									OFFSET	110.7	-3.89999	13.6
									CHANNELS 3  Xrotation Yrotation Zrotation
									JOINT right_hand
									{
										OFFSET	110.7	-3.89999	13.6
										CHANNELS 3  Xrotation Yrotation Zrotation
										JOINT right_ee
										{
											OFFSET	80.8	-5.10001	12.1
											CHANNELS 3  Xrotation Yrotation Zrotation
											End Site
											{
												OFFSET	1	0	0
											}
										}
									}
								}
							}
						}
					}
				}
			}
		}
	}
	JOINT left_hip
	{
		OFFSET	-82.8	-127.5	0.300001
		CHANNELS 3  Xrotation Yrotation Zrotation
		JOINT left_knee
		{
			OFFSET	-28.2	-396.7	2.2
			CHANNELS 3  Xrotation Yrotation Zrotation
			JOINT left_ankle
			{
				OFFSET	-11.7	-411.3	35.4
				CHANNELS 3  Xrotation Yrotation Zrotation
				JOINT left_toes
				{
					OFFSET	0	-60	-88.6
					CHANNELS 3  Xrotation Yrotation Zrotation
					JOINT left_foot_ee
					{
						OFFSET	-22.5	-16.5	-42.2
						CHANNELS 3  Xrotation Yrotation Zrotation
						End Site
						{
							OFFSET	1	0	0
						}
					}
				}
			}
		}
	}
	JOINT right_hip
	{
		OFFSET	82.8	-127.5	0.300001
		CHANNELS 3  Xrotation Yrotation Zrotation
		JOINT right_knee
		{
			OFFSET	28.2	-396.7	2.2
			CHANNELS 3  Xrotation Yrotation Zrotation
			JOINT right_ankle
			{
				OFFSET	11.7	-411.3	35.4
				CHANNELS 3  Xrotation Yrotation Zrotation
				JOINT right_toes
				{
					OFFSET	0	-60	-88.6
					CHANNELS 3  Xrotation Yrotation Zrotation
					JOINT right_foot_ee
					{
						OFFSET	22.5	-16.5	-42.2
						CHANNELS 3  Xrotation Yrotation Zrotation
						End Site
						{
							OFFSET	1	0	0
						}
					}
				}
			}
		}
	}
}
MOTION
Frames: 12
Frame Time: 0.02
3574.42 741.953 -1474.73 154.591122451 80.6855711082 -156.632742352 -1.20535 -0.00477899 -0.188342 -1.20533 0.00721535 -0.188264 -1.20534 0.0504526 -0.181521 -1.20538 0.0211516 -0.187211 -17.5169 12.3096 13.348 -17.2949 16.3518 16.9811 -0.0 0.0 -0.0 4.87493 18.3836 9.5701 -3.07381 -22.4703 59.36 1.93316 -43.7555 0.776318 -10.343 -0.477063 1.23152 1.32384 12.5787 13.6623 -0.0 0.0 -0.0 11.3318 24.0025 -22.0695 -15.88 10.4079 -56.8399 0.747112 20.3094 -0.133819 61.9548 1.95101 7.28527 4.68926 -3.00844 -34.4645 0.0 0.0 0.0 0.878484 24.8291 -1.10878 -15.9955 0.321828 2.42562 23.4814 5.5684 -3.15351 -30.5557 0.0 0.0 -0.0 0.0 -0.0 9.99192 16.446 -1.36469 -25.2445 -0.196648 -3.83776 14.8893 0.238452 2.09738 -8.3694 0.0 0.0 0.0 0.0 0.0 
3542.71430181 742.113 -1476.39671117 168.1075619 82.0643871426 -169.341816271 -1.12842 -0.0165643 -0.481308 -1.12829 0.0140958 -0.481387 -1.12832 0.124147 -0.465317 -1.12862 0.0491015 -0.479083 -11.3004 14.9945 12.891 -11.0149 19.974 16.3742 -0.0 0.0 -0.0 4.40412 19.9772 8.83208 -5.45649 -23.2765 59.1969 2.8702 -54.8696 1.49021 -13.0105 -0.635593 1.53374 0.896805 12.0006 10.6852 -0.0 0.0 -0.0 12.0922 26.5387 -23.5295 -19.1815 10.1477 -57.4169 0.342633 9.63323 -0.0288719 60.1134 1.78404 7.11838 5.59528 -2.58345 -42.0439 0.0 0.0 0.0 2.76775 21.8529 -1.86031 -16.7474 0.320183 2.54098 18.9407 6.98055 -2.59855 -32.4402 0.0 0.0 -0.0 0.0 -0.0 7.4046 16.8672 -1.53888 -19.5397 -0.300831 -2.96893 16.433 0.38949 2.30039 -7.52906 0.0 0.0 0.0 0.0 0.0 
3542.73135266 742.113 -1476.69439654 167.255418898 82.5901050428 -168.481984277 -1.12842 -0.0165643 -0.481308 -1.12829 0.0140958 -0.481387 -1.12832 0.124147 -0.465317 -1.12862 0.0491015 -0.479083 -11.3004 14.9945 12.891 -11.0149 19.974 16.3742 -0.0 0.0 -0.0 4.40412 19.9772 8.83208 -5.45649 -23.2765 59.1969 2.8702 -54.8696 1.49021 -13.0105 -0.635593 1.53374 0.896805 12.0006 10.6852 -0.0 0.0 -0.0 12.0922 26.5387 -23.5295 -19.1815 10.1477 -57.4169 0.342633 9.63323 -0.0288719 60.1134 1.78404 7.11838 5.59528 -2.58345 -42.0439 0.0 0.0 0.0 2.76775 21.8529 -1.86031 -16.7474 0.320183 2.54098 18.9407 6.98055 -2.59855 -32.4402 0.0 0.0 -0.0 0.0 -0.0 7.4046 16.8672 -1.53888 -19.5397 -0.300831 -2.96893 16.433 0.38949 2.30039 -7.52906 0.0 0.0 0.0 0.0 0.0 
3542.77214216 742.113 -1477.26817221 165.215954829 83.598530678 -166.427699351 -1.12842 -0.0165643 -0.481308 -1.12829 0.0140958 -0.481387 -1.12832 0.124147 -0.465317 -1.12862 0.0491015 -0.479083 -11.3004 14.9945 12.891 -11.0149 19.974 16.3742 -0.0 0.0 -0.0 4.40412 19.9772 8.83208 -5.45649 -23.2765 59.1969 2.8702 -54.8696 1.49021 -13.0105 -0.635593 1.53374 0.896805 12.0006 10.6852 -0.0 0.0 -0.0 12.0922 26.5387 -23.5295 -19.1815 10.1477 -57.4169 0.342633 9.63323 -0.0288719 60.1134 1.78404 7.11838 5.59528 -2.58345 -42.0439 0.0 0.0 0.0 2.76775 21.8529 -1.86031 -16.7474 0.320183 2.54098 18.9407 6.98055 -2.59855 -32.4402 0.0 0.0 -0.0 0.0 -0.0 7.4046 16.8672 -1.53888 -19.5397 -0.300831 -2.96893 16.433 0.38949 2.30039 -7.52906 0.0 0.0 0.0 0.0 0.0 
3542.81502365 742.113 -1477.75567248 162.898707484 84.4478956688 -164.097854447 -1.12842 -0.0165643 -0.481308 -1.12829 0.0140958 -0.481387 -1.12832 0.124147 -0.465317 -1.12862 0.0491015 -0.479083 -11.3004 14.9945 12.891 -11.0149 19.974 16.3742 -0.0 0.0 -0.0 4.40412 19.9772 8.83208 -5.45649 -23.2765 59.1969 2.8702 -54.8696 1.49021 -13.0105 -0.635593 1.53374 0.896805 12.0006 10.6852 -0.0 0.0 -0.0 12.0922 26.5387 -23.5295 -19.1815 10.1477 -57.4169 0.342633 9.63323 -0.0288719 60.1134 1.78404 7.11838 5.59528 -2.58345 -42.0439 0.0 0.0 0.0 2.76775 21.8529 -1.86031 -16.7474 0.320183 2.54098 18.9407 6.98055 -2.59855 -32.4402 0.0 0.0 -0.0 0.0 -0.0 7.4046 16.8672 -1.53888 -19.5397 -0.300831 -2.96893 16.433 0.38949 2.30039 -7.52906 0.0 0.0 0.0 0.0 0.0 
3542.88432995 742.113 -1478.40841522 158.40502028 85.5664532327 -159.587283786 -1.12842 -0.0165643 -0.481308 -1.12829 0.0140958 -0.481387 -1.12832 0.124147 -0.465317 -1.12862 0.0491015 -0.479083 -11.3004 14.9945 12.891 -11.0149 19.974 16.3742 -0.0 0.0 -0.0 4.40412 19.9772 8.83208 -5.45649 -23.2765 59.1969 2.8702 -54.8696 1.49021 -13.0105 -0.635593 1.53374 0.896805 12.0006 10.6852 -0.0 0.0 -0.0 12.0922 26.5387 -23.5295 -19.1815 10.1477 -57.4169 0.342633 9.63323 -0.0288719 60.1134 1.78404 7.11838 5.59528 -2.58345 -42.0439 0.0 0.0 0.0 2.76775 21.8529 -1.86031 -16.7474 0.320183 2.54098 18.9407 6.98055 -2.59855 -32.4402 0.0 0.0 -0.0 0.0 -0.0 7.4046 16.8672 -1.53888 -19.5397 -0.300831 -2.96893 16.433 0.38949 2.30039 -7.52906 0.0 0.0 0.0 0.0 0.0 
3542.97456798 742.113 -1479.11338102 150.132305818 86.7248994244 -151.296303066 -1.12842 -0.0165643 -0.481308 -1.12829 0.0140958 -0.481387 -1.12832 0.124147 -0.465317 -1.12862 0.0491015 -0.479083 -11.3004 14.9945 12.891 -11.0149 19.974 16.3742 -0.0 0.0 -0.0 4.40412 19.9772 8.83208 -5.45649 -23.2765 59.1969 2.8702 -54.8696 1.49021 -13.0105 -0.635593 1.53374 0.896805 12.0006 10.6852 -0.0 0.0 -0.0 12.0922 26.5387 -23.5295 -19.1815 10.1477 -57.4169 0.342633 9.63323 -0.0288719 60.1134 1.78404 7.11838 5.59528 -2.58345 -42.0439 0.0 0.0 0.0 2.76775 21.8529 -1.86031 -16.7474 0.320183 2.54098 18.9407 6.98055 -2.59855 -32.4402 0.0 0.0 -0.0 0.0 -0.0 7.4046 16.8672 -1.53888 -19.5397 -0.300831 -2.96893 16.433 0.38949 2.30039 -7.52906 0.0 0.0 0.0 0.0 0.0 
3543.13851769 742.113 -1480.16121425 119.610028869 88.1247026099 -120.7467847 -1.12842 -0.0165643 -0.481308 -1.12829 0.0140958 -0.481387 -1.12832 0.124147 -0.465317 -1.12862 0.0491015 -0.479083 -11.3004 14.9945 12.891 -11.0149 19.974 16.3742 -0.0 0.0 -0.0 4.40412 19.9772 8.83208 -5.45649 -23.2765 59.1969 2.8702 -54.8696 1.49021 -13.0105 -0.635593 1.53374 0.896805 12.0006 10.6852 -0.0 0.0 -0.0 12.0922 26.5387 -23.5295 -19.1815 10.1477 -57.4169 0.342633 9.63323 -0.0288719 60.1134 1.78404 7.11838 5.59528 -2.58345 -42.0439 0.0 0.0 0.0 2.76775 21.8529 -1.86031 -16.7474 0.320183 2.54098 18.9407 6.98055 -2.59855 -32.4402 0.0 0.0 -0.0 0.0 -0.0 7.4046 16.8672 -1.53888 -19.5397 -0.300831 -2.96893 16.433 0.38949 2.30039 -7.52906 0.0 0.0 0.0 0.0 0.0 
3543.38798936 742.113 -1481.4414484 48.8127754121 87.8334045543 -49.916037172 -1.12842 -0.0165643 -0.481308 -1.12829 0.0140958 -0.481387 -1.12832 0.124147 -0.465317 -1.12862 0.0491015 -0.479083 -11.3004 14.9945 12.891 -11.0149 19.974 16.3742 -0.0 0.0 -0.0 4.40412 19.9772 8.83208 -5.45649 -23.2765 59.1969 2.8702 -54.8696 1.49021 -13.0105 -0.635593 1.53374 0.896805 12.0006 10.6852 -0.0 0.0 -0.0 12.0922 26.5387 -23.5295 -19.1815 10.1477 -57.4169 0.342633 9.63323 -0.0288719 60.1134 1.78404 7.11838 5.59528 -2.58345 -42.0439 0.0 0.0 0.0 2.76775 21.8529 -1.86031 -16.7474 0.320183 2.54098 18.9407 6.98055 -2.59855 -32.4402 0.0 0.0 -0.0 0.0 -0.0 7.4046 16.8672 -1.53888 -19.5397 -0.300831 -2.96893 16.433 0.38949 2.30039 -7.52906 0.0 0.0 0.0 0.0 0.0 
3526.12324449 739.911 -1483.51052572 16.1886987567 86.7052974992 -17.5586862861 -0.829451 0.0711908 -0.469071 -0.829334 0.100894 -0.463591 -0.830104 0.20232 -0.429142 -0.830337 0.132006 -0.455709 -9.91707 15.7099 12.5805 -9.62003 21.1072 16.0418 -0.0 0.0 -0.0 4.26657 21.6706 8.61203 -7.79673 -22.0799 59.7284 2.909 -55.2306 1.52201 -14.052 -0.70129 1.64971 0.770569 11.7437 9.77546 -0.0 0.0 -0.0 13.038 25.9076 -25.7759 -20.2717 10.7812 -55.3137 0.295929 8.34004 -0.0215761 59.9413 1.7687 7.10251 5.53576 -3.21916 -41.7797 0.0 0.0 0.0 3.88955 21.7375 -2.03207 -19.5968 0.300218 2.97766 21.6376 10.8096 -2.93819 -32.2561 0.0 0.0 -0.0 0.0 -0.0 5.74795 18.4016 -0.805751 -17.9931 -0.314126 -2.73201 16.3267 -0.812744 2.28053 -6.09688 0.0 0.0 0.0 0.0 0.0 
3526.93935653 739.911 -1487.19044626 6.94025094844 82.3798536689 -8.274898376 -0.829451 0.0711908 -0.469071 -0.829334 0.100894 -0.463591 -0.830104 0.20232 -0.429142 -0.830337 0.132006 -0.455709 -9.91707 15.7099 12.5805 -9.62003 21.1072 16.0418 -0.0 0.0 -0.0 4.26657 21.6706 8.61203 -7.79673 -22.0799 59.7284 2.909 -55.2306 1.52201 -14.052 -0.70129 1.64971 0.770569 11.7437 9.77546 -0.0 0.0 -0.0 13.038 25.9076 -25.7759 -20.2717 10.7812 -55.3137 0.295929 8.34004 -0.0215761 59.9413 1.7687 7.10251 5.53576 -3.21916 -41.7797 0.0 0.0 0.0 3.88955 21.7375 -2.03207 -19.5968 0.300218 2.97766 21.6376 10.8096 -2.93819 -32.2561 0.0 0.0 -0.0 0.0 -0.0 5.74795 18.4016 -0.805751 -17.9931 -0.314126 -2.73201 16.3267 -0.812744 2.28053 -6.09688 0.0 0.0 0.0 0.0 0.0 
3515.05430316 733.19 -1493.74105559 5.89345364208 80.437654778 -7.23184984685 -0.743411 0.0724801 -0.425849 -0.743315 0.0994309 -0.420374 -0.744012 0.190616 -0.387643 -0.744199 0.127003 -0.412882 -11.3479 14.8677 13.1573 -11.0368 19.5701 16.5973 -0.0 0.0 -0.0 3.92482 22.3001 8.11774 -10.1696 -20.8785 60.6004 2.86324 -54.8043 1.48453 -15.0518 -0.766342 1.75991 0.535579 10.932 7.95352 -0.0 0.0 -0.0 13.0733 26.0388 -25.842 -20.0908 12.2494 -54.6942 0.445224 12.4377 -0.0485154 60.3972 1.80942 7.14445 5.64925 -3.10039 -42.7614 0.0 0.0 0.0 5.13748 15.9312 -2.04653 -24.9788 0.203417 3.79756 27.1476 15.3576 -3.61912 -31.2941 0.0 0.0 -0.0 0.0 -0.0 4.71771 19.9242 -1.25359 -17.6145 -0.316407 -2.67396 18.3273 -1.00223 2.53633 -4.13952 0.0 0.0 0.0 0.0 0.0 
